<?xml version="1.0" standalone="no"?><!DOCTYPE svg PUBLIC "-//W3C//DTD SVG 1.1//EN" "http://www.w3.org/Graphics/SVG/1.1/DTD/svg11.dtd"><svg t="1648308372042" class="icon" viewBox="0 0 1024 1024" version="1.1" xmlns="http://www.w3.org/2000/svg" p-id="10498" xmlns:xlink="http://www.w3.org/1999/xlink" width="200" height="200"><defs><style type="text/css">@font-face { font-family: feedback-iconfont; src: url("//at.alicdn.com/t/font_1031158_u69w8yhxdu.woff2?t=1630033759944") format("woff2"), url("//at.alicdn.com/t/font_1031158_u69w8yhxdu.woff?t=1630033759944") format("woff"), url("//at.alicdn.com/t/font_1031158_u69w8yhxdu.ttf?t=1630033759944") format("truetype"); }
</style></defs><path d="M512 64a448 448 0 1 1 0 896A448 448 0 0 1 512 64z m0 64a384 384 0 1 0 0 768A384 384 0 0 0 512 128z m214.4 233.088a32 32 0 0 1 4.16 40.768l-3.648 4.48-249.856 256a32 32 0 0 1-39.04 5.312l-5.12-3.712-134.144-118.784a32 32 0 0 1 37.76-51.328l4.736 3.392L452.48 595.84l228.544-234.112a32 32 0 0 1 45.248-0.576z" p-id="10499"></path></svg>